<?xml version="1.0" encoding="utf-8"?>
<!-- Generator: Adobe Illustrator 14.0.0, SVG Export Plug-In . SVG Version: 6.00 Build 43363)  -->
<!DOCTYPE svg PUBLIC "-//W3C//DTD SVG 1.1//EN" "http://www.w3.org/Graphics/SVG/1.1/DTD/svg11.dtd">
<svg version="1.1" xmlns="http://www.w3.org/2000/svg" xmlns:xlink="http://www.w3.org/1999/xlink" x="0px" y="0px" width="2272px"
	 height="1872px" viewBox="0 0 2272 1872" enable-background="new 0 0 2272 1872" xml:space="preserve">
<g id="back">
	<rect x="0.031" y="-0.022" fill-rule="evenodd" clip-rule="evenodd" fill="#FFFFFF" width="2271.938" height="1872.022"/>
</g>
<g id="Bicyling_in_the_Park">
	<g>
		<g>
			<linearGradient id="SVGID_1_" gradientUnits="userSpaceOnUse" x1="1136.0005" y1="1420.5977" x2="1136.0005" y2="200.6416">
				<stop  offset="0" style="stop-color:#B5DDF6"/>
				<stop  offset="1" style="stop-color:#F7DFEC"/>
			</linearGradient>
			<path fill="url(#SVGID_1_)" d="M0,531.595c0,0,122.589-297.356,258.047-221.666C393.504,385.62,633.288,220.722,818.835,201.8
				c185.547-18.923,67.877,200.04,143.839,210.853c75.962,10.813,194.316-76.868,343.523-33.027
				c149.206,43.84-4.94,321.233,154.916,365.006c159.855,43.772,348.257-286.023,465.294-296.836
				C2043.444,436.981,2272,733.749,2272,733.749v686.849H0V531.595z"/>
			<g>
				<path fill="#FFFFFF" d="M682.135,579.097h473.024c0,0-53.156-26.823-102.883-29.418c-49.727-2.596-66.785-53.646-129.845-54.511
					c-63.061-0.865-114.502,54.511-133.364,55.376s-44.583-51.05-72.875-36.34c-28.292,14.709-90.021,64.028-157.753,64.894H682.135
					z"/>
				<path fill="#FFFFFF" d="M1725.873,1010.565h473.024c0,0-53.156-26.823-102.883-29.419s-66.784-53.645-129.845-54.51
					s-114.502,54.51-133.364,55.375c-18.861,0.865-44.582-51.049-72.875-36.34c-28.293,14.709-90.021,64.028-157.753,64.894
					H1725.873z"/>
				<path fill="#FFFFFF" d="M233.062,1102.229h473.024c0,0-53.156-26.823-102.883-29.419
					c-49.727-2.596-66.785-53.646-129.845-54.511c-63.06-0.865-114.501,54.511-133.364,55.376
					c-18.861,0.865-44.582-51.05-72.875-36.341s-90.021,64.028-157.753,64.895H233.062z"/>
			</g>
		</g>
		<g>
			<ellipse fill="#FFD350" cx="1688.75" cy="259.917" rx="105.784" ry="106.758"/>
			<g>
				<linearGradient id="SVGID_2_" gradientUnits="userSpaceOnUse" x1="1496.1738" y1="334.2466" x2="2092.8936" y2="334.2466">
					<stop  offset="0" style="stop-color:#B5DDF6"/>
					<stop  offset="1" style="stop-color:#F7DFEC"/>
				</linearGradient>
				<path fill="url(#SVGID_2_)" d="M1619.869,376.216h473.024c0,0-53.156-26.823-102.883-29.418s-66.784-53.646-129.845-54.511
					s-114.502,54.511-133.364,55.376c-18.861,0.865-44.582-51.05-72.875-36.34c-28.293,14.709-90.021,64.028-157.753,64.894
					H1619.869z"/>
				<linearGradient id="SVGID_3_" gradientUnits="userSpaceOnUse" x1="1051.0615" y1="222.1709" x2="1349.4219" y2="222.1709">
					<stop  offset="0" style="stop-color:#B5DDF6"/>
					<stop  offset="1" style="stop-color:#F7DFEC"/>
				</linearGradient>
				<path fill="url(#SVGID_3_)" d="M1112.91,243.155h236.512c0,0-26.578-13.411-51.441-14.709
					c-24.863-1.297-33.393-26.823-64.923-27.255c-31.53-0.433-57.251,27.255-66.682,27.688c-9.431,0.433-22.291-25.525-36.438-18.17
					s-45.011,32.014-78.877,32.447H1112.91z"/>
			</g>
		</g>
	</g>
	<g>
		<g>
			<path fill="#BA4A32" d="M1371.932,1420.598c0,0-28.279-85.498-87.922-54.133c-59.643,31.367-124.514-91.96-178.692-89.108
				s-92.241,40.915-101.94,64.871c-9.699,23.957-82.693,0-119.762,13.545c-37.069,13.544-81.257,37.69-123.322,64.825H1371.932z"/>
			<path fill="#F5823F" d="M326.926,1420.598c0,0,28.279-85.498,87.922-54.133c59.642,31.367,124.514-91.96,178.692-89.108
				s92.241,40.915,101.94,64.871c9.699,23.957,82.693,0,119.762,13.545c37.069,13.544,81.257,37.69,123.322,64.825H326.926z"/>
			<path fill="#F5823F" d="M2269.546,1420.598c0,0-28.279-85.498-87.922-54.133c-59.643,31.367-124.514-91.96-178.692-89.108
				c-54.178,2.852-92.241,40.915-101.94,64.871c-9.699,23.957-82.692,0-119.762,13.545c-37.069,13.544-81.258,37.69-123.322,64.825
				H2269.546z"/>
			<path fill="#FFA648" d="M2006.78,1420.598c0,0-28.279-85.498-87.922-54.133c-59.643,31.367-124.514-91.96-178.692-89.108
				c-54.178,2.852-92.241,40.915-101.94,64.871c-9.699,23.957-82.692,0-119.762,13.545c-37.069,13.544-81.258,37.69-123.322,64.825
				H2006.78z"/>
			<g>
				<path fill="#E66045" d="M236.437,968.008c0.055,0.05,0.105,0.104,0.153,0.16c2.59,3.062,76.64,88.33,248.878,37.215
					c175.37-52.045,164.876-260.94,155.268-282.505c-14.448-32.424-48.184-76.326-88.952-56.968s-17.216-40.817-61.455-55.563
					s-64.778-45.75-92.436-57.98c-69.861-30.895-131.881-7.504-165.711,45.803c-33.829,53.307,15.614,135.321-10.409,149.829
					s-55.221,24.493-51.178,74.848C174.425,870.531,195.821,930.958,236.437,968.008z"/>
				<path fill="#BA4A32" d="M485.468,1005.383c155.065-46.02,164.814-214.67,158.351-268.015c-0.083-0.684-0.545-1.266-1.195-1.495
					c-10.829-3.81-22.671-3.83-35.178,2.108c-40.769,19.358-33.025-36.764-77.264-51.509
					c-44.238-14.746-101.206-20.211-111.615-39.294c-10.409-19.083-96.893-30.245-130.722,23.063
					c-33.829,53.307-6.86,114.453-32.882,128.961c-26.022,14.508-32.748,45.36-28.704,95.715
					c1.122,13.968,3.751,29.029,7.929,44.276c0.38,1.388-0.905,2.674-2.281,2.251c-7.696-2.362-15.136-6.323-22.026-11.016
					c-1.65-1.124-3.667,0.805-2.592,2.486c8.289,12.963,17.989,24.913,29.148,35.093c0.055,0.05,0.105,0.104,0.153,0.16
					C239.18,971.229,313.229,1056.498,485.468,1005.383z"/>
				<path fill="#993929" d="M587.349,842.206c-56.415-15.943-66.943,104.977-104.245,121.415
					c-28.491,12.556-122.921,45.269-200.37,33.25c-2.085-0.324-2.966,2.534-1.066,3.452c39.319,19.012,105.6,34.202,203.8,5.06
					c79.942-23.725,121.26-80.042,141.647-136.351c0.186-0.513,0.14-1.083-0.139-1.552
					C621.501,858.278,610.125,848.643,587.349,842.206z"/>
				<path fill="#5A201F" d="M383.765,1418.769v-346.294c0-14.53-0.981-29.044-2.937-43.442l-36.25-266.879
					c-0.039-0.285-0.009-0.576,0.085-0.848l0,0c1.918-5.509,9.915-4.842,10.893,0.909l47.812,281.116
					c0.321,1.885,2.952,2.077,3.543,0.259l59.855-184.015c0.497-1.526,2.578-1.719,3.346-0.31l0,0
					c2.832,5.195,3.594,11.269,2.133,17.003l-35.522,139.42c-9.714,38.128-14.371,77.368-13.85,116.71l3.79,286.346
					c0.014,1.02-0.81,1.854-1.829,1.854h-39.241C384.584,1420.598,383.765,1419.779,383.765,1418.769z"/>
			</g>
			<g>
				<path fill="#E66045" d="M1624.655,1017.438c0.049,0.044,0.095,0.092,0.137,0.142c2.308,2.728,68.27,78.684,221.696,33.15
					c156.217-46.36,146.869-232.441,138.311-251.651c-12.87-28.883-42.922-67.99-79.237-50.746
					c-36.316,17.244-98.146-187.769-284.695-60.342c-46.44,31.722,13.908,120.542-9.272,133.465
					c-23.18,12.923-49.189,21.818-45.588,66.673C1569.417,930.607,1588.477,984.436,1624.655,1017.438z"/>
				<path fill="#BA4A32" d="M1846.488,1050.73c138.13-40.993,146.814-191.224,141.057-238.743c-0.074-0.609-0.485-1.128-1.064-1.332
					c-9.646-3.395-20.195-3.412-31.336,1.877c-36.316,17.244-116.163-75.943-155.57-89.078
					c-39.406-13.136-98.99-18.749-129.125,28.736c-30.135,47.485,13.908,120.542-9.272,133.465
					c-23.18,12.924-49.189,21.818-45.588,66.673c0.999,12.442,3.342,25.858,7.063,39.44c0.339,1.236-0.806,2.382-2.031,2.005
					c-6.854-2.104-13.482-5.633-19.62-9.813c-1.47-1.001-3.268,0.717-2.309,2.215c7.383,11.547,16.023,22.192,25.964,31.26
					c0.049,0.045,0.095,0.093,0.137,0.143C1627.1,1020.308,1693.062,1096.264,1846.488,1050.73z"/>
				<path fill="#993929" d="M1937.243,905.376c-50.254-14.202-59.632,93.511-92.86,108.154
					c-25.379,11.185-109.495,40.324-178.486,29.618c-1.857-0.288-2.642,2.258-0.949,3.076
					c35.024,16.935,94.066,30.467,181.541,4.506c71.211-21.134,108.017-71.3,126.178-121.458c0.165-0.457,0.125-0.965-0.123-1.383
					C1967.665,919.692,1957.532,911.11,1937.243,905.376z"/>
				<path fill="#5A201F" d="M1755.894,1418.969v-308.474c0-12.943-0.874-25.872-2.616-38.697l-32.29-237.732
					c-0.035-0.254-0.009-0.513,0.075-0.755l0,0c1.709-4.908,8.832-4.313,9.703,0.81l42.59,250.413
					c0.286,1.679,2.63,1.851,3.156,0.231l53.318-163.918c0.442-1.36,2.297-1.532,2.98-0.276l0,0
					c2.523,4.627,3.202,10.038,1.9,15.146l-31.642,124.193c-8.653,33.964-12.802,68.918-12.338,103.963l3.376,255.072
					c0.013,0.909-0.721,1.651-1.629,1.651h-34.955C1756.623,1420.598,1755.894,1419.868,1755.894,1418.969z"/>
			</g>
			<path fill="#CD472A" d="M647.012,1420.598c0,0-29.228-37.782-12.832-47.049c16.396-9.268,27.802,23.524,27.802,23.524
				s-11.406-40.634,0-48.476s23.258,36,23.258,36s-8.002-78.771,21.083-82.336s7.699,81.979,7.699,81.979s4.99-41.347,21.386-36.356
				s2.852,54.892,2.852,54.892s11.406-20.674,23.524-9.98c12.119,10.693-5.703,27.802-5.703,27.802H647.012z"/>
			<path fill="#FFA84E" d="M20.604,1420.598c0,0,54.535-98.994,161.465-61.414c106.931,37.579,149.445-36.473,204.108-37.942
				c54.664-1.469,91.021,41.746,117.753,42.06c26.733,0.313,66.784-37.42,125.352-4.117c58.569,33.302,75.851,61.414,75.851,61.414
				H20.604z"/>
			<g>
				<path fill="#FFA648" d="M506.956,894.447c0.063,0.058,0.123,0.12,0.178,0.186c3.011,3.559,89.096,102.687,289.329,43.264
					c203.873-60.504,191.674-303.352,180.503-328.422c-16.796-37.695-56.015-88.731-103.41-66.227
					c-47.395,22.504-38.394-42.738-89.822-59.881c-51.429-17.143-102.315,25.393-114.416,3.208
					c-12.101-22.185-127.981-84.048-167.309-22.077c-39.328,61.971,18.151,157.314-12.101,174.181
					c-30.252,16.866-64.196,28.474-59.496,87.013C434.866,781.127,459.739,851.376,506.956,894.447z"/>
				<path fill="#F07A3A" d="M796.463,937.896c180.268-53.499,191.602-249.561,184.088-311.576c-0.097-0.795-0.633-1.472-1.389-1.738
					c-12.589-4.43-26.357-4.453-40.896,2.451c-47.395,22.504-38.394-42.738-89.822-59.881
					c-51.429-17.143-102.315,25.393-114.416,3.208c-12.101-22.185-127.981-84.048-167.309-22.077
					c-39.327,61.971,18.151,157.314-12.101,174.18c-30.252,16.866-64.196,28.474-59.496,87.013
					c1.304,16.238,4.36,33.747,9.217,51.472c0.442,1.614-1.052,3.109-2.651,2.618c-8.946-2.746-17.595-7.351-25.605-12.806
					c-1.918-1.306-4.264,0.936-3.014,2.891c9.636,15.069,20.912,28.962,33.886,40.796c0.063,0.058,0.123,0.12,0.178,0.186
					C510.145,898.192,596.23,997.319,796.463,937.896z"/>
				<path fill="#DD6733" d="M914.903,748.198c-65.584-18.535-77.824,122.038-121.188,141.148
					c-33.122,14.596-142.899,52.627-232.937,38.654c-2.424-0.376-3.448,2.946-1.239,4.014
					c45.709,22.103,122.763,39.762,236.924,5.882c92.935-27.581,140.969-93.052,164.67-158.512c0.216-0.597,0.163-1.26-0.161-1.805
					C954.607,766.882,941.382,755.681,914.903,748.198z"/>
				<path fill="#834432" d="M678.23,1418.471v-402.577c0-16.893-1.141-33.766-3.415-50.504l-42.141-310.255
					c-0.045-0.332-0.011-0.669,0.099-0.986l0,0c2.23-6.405,11.526-5.628,12.664,1.058l55.583,326.807
					c0.373,2.19,3.432,2.414,4.119,0.301l69.584-213.924c0.577-1.774,2.997-1.999,3.89-0.36h0c3.292,6.04,4.178,13.101,2.479,19.767
					l-41.295,162.081c-11.293,44.325-16.707,89.942-16.101,135.68l4.406,332.887c0.016,1.186-0.941,2.154-2.126,2.154h-45.619
					C679.183,1420.598,678.23,1419.646,678.23,1418.471z"/>
			</g>
			<path fill="#CD472A" d="M288.731,1420.598c0,0-29.228-37.782-12.832-47.049c16.396-9.268,27.802,23.524,27.802,23.524
				s-11.406-40.634,0-48.476c11.406-7.842,23.258,36,23.258,36s-8.002-78.771,21.083-82.336s7.699,81.979,7.699,81.979
				s4.99-41.347,21.386-36.356s2.852,54.892,2.852,54.892s11.406-20.674,23.525-9.98c12.119,10.693-5.703,27.802-5.703,27.802
				H288.731z"/>
			<path fill="#A33423" d="M2238,1382.662c-16.536-14.59-32.1,13.618-32.1,13.618s18.482-68.089-3.891-74.898
				c-12.34-3.756-19.944,11.726-24.283,26.364c6.184-33.778,12.887-92.084-15.402-88.617
				c-39.687,4.863-28.768,112.348-28.768,112.348s-6.971-25.782-16.162-40.468c-1.708-4.827-4.48-8.334-8.729-9.627
				c-12.341-3.756-19.944,11.726-24.283,26.364c6.183-33.778,12.886-92.084-15.403-88.617
				c-39.686,4.863-28.767,112.348-28.767,112.348s-16.172-59.821-31.735-49.122c-15.563,10.7,0,66.145,0,66.145
				s-15.563-44.745-37.936-32.1s17.509,64.198,17.509,64.198h93.345h55.479h93.346
				C2230.219,1420.598,2254.536,1397.253,2238,1382.662z"/>
			<path fill="#CD472A" d="M1878.318,1420.598c0,0-39.881-51.553-17.509-64.198s37.936,32.1,37.936,32.1s-15.563-55.444,0-66.145
				c15.563-10.699,31.735,49.122,31.735,49.122s-10.919-107.484,28.767-112.348c39.687-4.863,10.505,111.861,10.505,111.861
				s6.81-56.417,29.182-49.608c22.372,6.81,3.891,74.898,3.891,74.898s15.563-28.208,32.1-13.618
				c16.536,14.591-7.781,37.936-7.781,37.936H1878.318z"/>
		</g>
		<g>
			<g>
				<rect y="1421.162" fill="#D7CCCA" width="2272" height="456.185"/>
				<g>
					<path fill="#AFA7A7" d="M463.653,1509.963c-20.079,0-36.356,16.277-36.356,36.356h72.713
						C500.01,1526.24,483.732,1509.963,463.653,1509.963z"/>
					<path fill="#AFA7A7" d="M513.527,1523.772c-12.453,0-22.547,10.095-22.547,22.547h45.094
						C536.074,1533.867,525.979,1523.772,513.527,1523.772z"/>
					<path fill="#AFA7A7" d="M1876.524,1744.071c-17.633,0-31.927,14.294-31.927,31.927h63.854
						C1908.451,1758.365,1894.157,1744.071,1876.524,1744.071z"/>
					<path fill="#AFA7A7" d="M269.2,1708.804c-10.935,0-19.8,8.865-19.8,19.801H289C289,1717.669,280.135,1708.804,269.2,1708.804z"
						/>
					<path fill="#AFA7A7" d="M2008.605,1518.241c-10.936,0-19.8,8.864-19.8,19.8h39.601
						C2028.406,1527.105,2019.541,1518.241,2008.605,1518.241z"/>
					<path fill="#AFA7A7" d="M2075.615,1525.845c-10.935,0-19.8,8.865-19.8,19.801h39.601
						C2095.416,1534.71,2086.551,1525.845,2075.615,1525.845z"/>
				</g>
			</g>
			<g>
				<ellipse fill="#999292" cx="1196.942" cy="1622.888" rx="491.808" ry="23.465"/>
				<g>
					<g>
						<g>
							<rect x="1338.088" y="1431.755" fill="#3A3F67" width="308.158" height="3"/>
						</g>
						<g>
							<rect x="1490.666" y="1279.176" fill="#3A3F67" width="3" height="308.158"/>
						</g>
						<g>
							
								<rect x="1338.087" y="1431.755" transform="matrix(0.7071 0.7071 -0.7071 0.7071 1450.5051 -635.3303)" fill="#3A3F67" width="308.158" height="3"/>
						</g>
						<g>
							
								<rect x="1490.667" y="1279.176" transform="matrix(0.7071 0.7071 -0.7071 0.7071 1450.5096 -635.3303)" fill="#3A3F67" width="3" height="308.158"/>
						</g>
					</g>
					<g>
						<g>
							<rect x="748.472" y="1431.755" fill="#3A3F67" width="308.159" height="3"/>
						</g>
						<g>
							<rect x="901.051" y="1279.176" fill="#3A3F67" width="3" height="308.158"/>
						</g>
						<g>
							
								<rect x="748.473" y="1431.755" transform="matrix(0.7071 0.7071 -0.7071 0.7071 1277.8156 -218.4098)" fill="#3A3F67" width="308.158" height="3"/>
						</g>
						<g>
							
								<rect x="901.052" y="1279.176" transform="matrix(0.7071 0.7071 -0.7071 0.7071 1277.8156 -218.4098)" fill="#3A3F67" width="3" height="308.158"/>
						</g>
					</g>
					<g>
						<path fill="#2E3351" d="M961.634,1064.367c0,0,84.562,196.336,88.485,209.414l90.895-26.156
							c0,0-48.717-191.744-46.592-209.194L961.634,1064.367z"/>
					</g>
					<g>
						<path fill="#FFAB8F" d="M1057.585,1271.633c0,0-2.235,58.385,18.037,95.004s23.271,83.701,23.271,83.701
							c8.378,6.631,20.799,6.74,34.273,5.149c0,0-18.986-165.437-17.013-200.709L1057.585,1271.633z"/>
					</g>
					<g>
						<path fill="#E53A33" d="M1133.167,1455.487c0,0,36.538,36.538,45.611,47.572c9.072,11.035,11.525,29.427,1.716,30.162
							c-9.809,0.735-96.616-42.178-96.616-42.178s-6.13-4.659,2.452-22.314s12.564-18.392,12.564-18.392
							C1108.19,1455.863,1120.629,1455.764,1133.167,1455.487z"/>
					</g>
					<g>
						<circle fill="#030C37" cx="902.552" cy="1433.255" r="44.385"/>
					</g>
					<g>
						<circle fill="#030C37" cx="1492.166" cy="1433.433" r="44.384"/>
					</g>
					<g>
						<circle fill="#55646D" cx="1183.245" cy="1433.255" r="62.04"/>
					</g>
					<g>
						<g>
							<circle fill="#7C92A0" cx="1183.245" cy="1433.255" r="47.231"/>
						</g>
					</g>
					<g>
						<path fill="#030C37" d="M1065.446,1200.618c-4.028,0-7.912-2.223-9.844-6.068l-38.207-76.034
							c-2.73-5.432-0.538-12.048,4.894-14.778c5.432-2.725,12.048-0.537,14.778,4.894l38.207,76.035
							c2.73,5.431,0.538,12.047-4.894,14.777C1068.794,1200.239,1067.107,1200.618,1065.446,1200.618z"/>
					</g>
					<g>
						<path fill="#030B39" d="M962.204,1098.102l3.995,15.103c2.249,8.504,9.943,14.427,18.739,14.427h121.078
							c8.389,0,15.19-6.801,15.19-15.189l0,0c0-6.062-3.603-11.542-9.167-13.945l-30.998-13.39
							c-12.454-5.379-25.876-8.153-39.441-8.153h-63.113C967.434,1076.953,959.377,1087.417,962.204,1098.102z"/>
					</g>
					<g>
						<path fill="#6767D3" d="M1183.248,1444.263c-0.296,0-0.594-0.011-0.893-0.035c-3.889-0.317-7.32-2.669-9.021-6.181
							l-121.083-250.423c-1.553-3.217-1.451-6.989,0.277-10.115c1.728-3.128,4.867-5.222,8.419-5.616l321.972-35.775
							c4.292-0.488,8.483,1.61,10.685,5.332c2.207,3.723,2.026,8.391-0.459,11.933l-200.889,286.196
							C1190.185,1442.529,1186.814,1444.263,1183.248,1444.263z M1078.848,1192.053L1185,1411.597l176.116-250.905
							L1078.848,1192.053z"/>
					</g>
					<g>
						<path fill="#030C37" d="M902.552,1629.838c-108.396,0-196.583-88.188-196.583-196.583
							c0-108.396,88.187-196.583,196.583-196.583s196.583,88.187,196.583,196.583
							C1099.135,1541.65,1010.948,1629.838,902.552,1629.838z M902.552,1269.694c-90.188,0-163.56,73.374-163.56,163.561
							s73.373,163.561,163.56,163.561c90.188,0,163.56-73.374,163.56-163.561S992.74,1269.694,902.552,1269.694z"/>
					</g>
					<g>
						<path fill="#6767D3" d="M902.552,1603.735c-94.003,0-170.481-76.479-170.481-170.48c0-94.003,76.478-170.48,170.481-170.48
							c94.004,0,170.48,76.478,170.48,170.48C1073.033,1527.257,996.556,1603.735,902.552,1603.735z M902.552,1284.79
							c-81.865,0-148.466,66.602-148.466,148.465s66.602,148.465,148.466,148.465c81.864,0,148.465-66.602,148.465-148.465
							S984.416,1284.79,902.552,1284.79z"/>
					</g>
					<g>
						<path fill="#030C37" d="M1492.167,1629.838c-108.396,0-196.583-88.188-196.583-196.583
							c0-108.396,88.187-196.583,196.583-196.583c108.396,0,196.583,88.187,196.583,196.583
							C1688.75,1541.65,1600.563,1629.838,1492.167,1629.838z M1492.167,1269.694c-90.187,0-163.561,73.374-163.561,163.561
							s73.374,163.561,163.561,163.561s163.56-73.374,163.56-163.561S1582.354,1269.694,1492.167,1269.694z"/>
					</g>
					<g>
						<path fill="#D97273" d="M1292.784,916.488c0,0,61.521-12.641,67.794,32.194s-49.994,17.8-69.229-3.457
							c0,0-3.315-5.731-32.58,19.814c-29.266,25.547-101.757,80.853-127.155,58.469c-25.398-22.383-32.721-95.915-32.721-95.915
							l61.269-52.92l12.238,84.335L1292.784,916.488z"/>
					</g>
					<g>
						<path fill="#6767D3" d="M1492.167,1603.735c-94.005,0-170.483-76.479-170.483-170.48c0-94.003,76.479-170.48,170.483-170.48
							c94.002,0,170.48,76.478,170.48,170.48C1662.647,1527.257,1586.169,1603.735,1492.167,1603.735z M1492.167,1284.79
							c-81.866,0-148.468,66.602-148.468,148.465s66.602,148.465,148.468,148.465c81.863,0,148.465-66.602,148.465-148.465
							S1574.03,1284.79,1492.167,1284.79z"/>
					</g>
					<g>
						<path fill="#030C37" d="M1374.453,1115.592c-4.886,0-9.347-3.279-10.642-8.227l-18.124-69.332
							c-3.361-12.864,2.985-26.188,15.096-31.682l27.747-12.588c5.31-2.41,9.314-6.762,11.278-12.252
							c1.965-5.493,1.623-11.399-0.956-16.63c-3.163-6.414-10.057-10.117-17.144-9.201l-62.086,7.946
							c-6.021,0.758-11.543-3.493-12.316-9.521c-0.771-6.03,3.49-11.545,9.521-12.316l62.086-7.946
							c16.429-2.085,32.362,6.463,39.683,21.301c5.24,10.626,5.931,22.622,1.942,33.777c-3.987,11.155-12.125,19.997-22.915,24.891
							l-27.747,12.588c-2.316,1.051-3.534,3.604-2.889,6.065l18.123,69.332c1.537,5.883-1.982,11.897-7.865,13.435
							C1376.313,1115.476,1375.375,1115.592,1374.453,1115.592z"/>
					</g>
					<g>
						<path fill="#6767D3" d="M1183.245,1444.263H902.552c-4.019,0-7.718-2.19-9.652-5.714c-1.932-3.523-1.791-7.82,0.37-11.212
							l159.61-250.422c3.265-5.125,10.064-6.633,15.2-3.364c5.125,3.268,6.632,10.072,3.364,15.199l-148.822,233.497h260.623
							c6.079,0,11.008,4.929,11.008,11.008S1189.324,1444.263,1183.245,1444.263z"/>
					</g>
					<g>
						<path fill="#6767D3" d="M1492.178,1441.239c-3.534,0-7.006-1.698-9.132-4.849l-51.007-75.529
							c-0.688-1.016-1.199-2.139-1.516-3.324l-66.699-250.121c-1.566-5.871,1.928-11.904,7.802-13.472
							c5.851-1.563,11.903,1.925,13.472,7.802l61.165,229.372c3.347,12.551,8.768,24.455,16.037,35.221l38.988,57.733
							c3.401,5.036,2.077,11.878-2.962,15.28C1496.439,1440.629,1494.295,1441.239,1492.178,1441.239z"/>
					</g>
					<g>
						<path fill="#FFAB8F" d="M1314.301,919.032c0,0,60.814-15.694,69.314,28.772c8.502,44.466-49.043,20.271-69.314,0
							c0,0-3.597-5.559-31.551,21.415c-27.955,26.975-97.598,85.827-124.081,64.738s-37.464-94.164-37.464-94.164l58.553-55.91
							l16.43,83.62L1314.301,919.032z"/>
					</g>
					<g>
						<path fill="#0197A6" d="M1112.631,933.838l10.679,17.578l68.709-52.328c0,0,5.396-104.954-47.572-112.8
							c-52.967-7.847-197.646,92.32-190.779,252.143l3.923,26.425c0,0,116.233-13.614,136.832-26.425L1112.631,933.838z"/>
					</g>
					<g>
						<path fill="#030C37" d="M1128.253,1531.576c-1.666,0-3.351-0.433-4.888-1.342c-4.579-2.703-6.103-8.607-3.397-13.189
							l53.796-91.146c2.704-4.582,8.613-6.103,13.19-3.396c4.579,2.703,6.103,8.607,3.396,13.189l-53.796,91.146
							C1134.759,1529.88,1131.548,1531.576,1128.253,1531.576z"/>
					</g>
					<g>
						<path fill="#030C37" d="M1183.504,1438.428c-1.667,0-3.352-0.433-4.889-1.342c-4.58-2.703-6.104-8.607-3.397-13.189
							l53.797-91.146c2.703-4.582,8.612-6.103,13.189-3.396c4.579,2.703,6.103,8.607,3.397,13.189l-53.797,91.146
							C1190.01,1436.731,1186.798,1438.428,1183.504,1438.428z"/>
					</g>
					<g>
						<path fill="#FFAB8F" d="M1152.102,786.068l37.989-29.814l23.017,32.263l-40.852,30.791c-7.796,5.876-18.3,3.962-24.053-4.383
							l0,0C1141.928,805.822,1143.707,792.656,1152.102,786.068z"/>
					</g>
					<g>
						<path fill="#D67473" d="M1170.049,771.983c0,0,6.393,24.676,12.925,39.247l30.134-22.713l-8.873-12.438l-19.724-15.445
							L1170.049,771.983z"/>
					</g>
					<g>
						<path fill="#1F2060" d="M1144.446,741.04c0,0-5.067,17.129-13.242,17.129c-8.174,0-0.654,66.046,36.946,33.677
							c37.601-32.369,29.735-62.285,16.503-61.386C1171.42,731.359,1144.446,741.04,1144.446,741.04z"/>
					</g>
					<g>
						<path fill="#030C37" d="M1145.313,1541.113c-1.424,0-2.873-0.317-4.237-0.988l-47.745-23.459
							c-4.775-2.346-6.746-8.118-4.399-12.892c2.343-4.775,8.122-6.748,12.892-4.399l47.744,23.459
							c4.776,2.346,6.746,8.118,4.399,12.892C1152.292,1539.136,1148.871,1541.113,1145.313,1541.113z"/>
					</g>
					<g>
						<circle fill="#FFAB8F" cx="1229.979" cy="730.459" r="68.743"/>
					</g>
					<g>
						<path fill="#1F2060" d="M1203.135,684.604c0,0,41.197,31.372,71.277,14.869c30.08-16.503,23.416-28.804,15.04-45.93
							c-21.906-44.793-85.354-40.87-104.799-35.639s-72.085,41.197-47.563,98.087c0,0,8.501,46.755,38.581,31.715
							S1203.135,684.604,1203.135,684.604z"/>
					</g>
					<g>
						<g>
							<circle fill="#FFAB8F" cx="1163.365" cy="741.04" r="21.289"/>
						</g>
						<g>
							<circle fill="#D67473" cx="1163.365" cy="741.04" r="10.581"/>
						</g>
					</g>
					<g>
						<path fill="#FFAB8F" d="M1291.348,699.473l24.12,18.625c4.535,3.502,3.281,9.851-2.347,11.882l-14.688,5.303L1291.348,699.473
							z"/>
					</g>
					<g>
						<path fill="#1F2060" d="M1286.972,761.701c-8.958,0-28.813-0.739-34.858-7.059c-0.382-0.399-0.368-1.032,0.031-1.414
							c0.398-0.382,1.032-0.368,1.414,0.031c7.105,7.428,37.445,6.388,37.752,6.375c0.562-0.014,1.016,0.41,1.036,0.962
							c0.021,0.552-0.41,1.016-0.962,1.037C1291.105,761.644,1289.457,761.701,1286.972,761.701z"/>
					</g>
					<g>
						<path fill="#FFAB8F" d="M1244.365,1089.104c0,0,54.286-8.818,53.256,24.051c-1.031,32.868-61.994,183.177-61.994,183.177
							c-16.587,4.764-26.805-5.888-35.385-12.597c0,0,2.434,6.224,10.167-38.017c8.911-50.971,12.294-47.067,21.576-73.895
							c9.49-27.428,8.108-26.362,8.108-26.362l-21.014,2.806L1244.365,1089.104z"/>
					</g>
					<g>
						<path fill="#E53A33" d="M1238.23,1291.307c0,0,32.821,34.115,41.895,45.15s11.525,29.426,1.717,30.162
							c-9.809,0.735-96.616-42.178-96.616-42.178s-6.13-4.659,2.452-22.314c8.583-17.656,12.564-18.392,12.564-18.392
							C1209.948,1289.907,1222.596,1292.45,1238.23,1291.307z"/>
					</g>
					<g>
						<path fill="#030C37" d="M1278.292,1382.222c-1.425,0-2.873-0.316-4.238-0.988l-47.744-23.456
							c-4.775-2.346-6.745-8.118-4.399-12.892c2.346-4.77,8.116-6.745,12.892-4.399l47.744,23.456
							c4.775,2.346,6.745,8.118,4.399,12.892C1285.271,1380.241,1281.85,1382.222,1278.292,1382.222z"/>
					</g>
					<g>
						<path fill="#3A3F67" d="M961.634,1064.367c0,0,10.573,75.361,103.804,74.054s161.02,26.156,161.02,26.156l62.34-77.815
							l-194.376-48.331L961.634,1064.367z"/>
					</g>
				</g>
			</g>
		</g>
	</g>
</g>
</svg>
