<svg id="Capa_1" enable-background="new 0 0 512 512" height="512" viewBox="0 0 512 512" width="512" xmlns="http://www.w3.org/2000/svg"><g><path d="m150 226c0-33.084-26.916-60-60-60s-60 26.916-60 60 26.916 60 60 60 60-26.916 60-60zm-60 30c-16.542 0-30-13.458-30-30s13.458-30 30-30 30 13.458 30 30-13.458 30-30 30z"/><path d="m482 226c0-33.084-26.916-60-60-60s-60 26.916-60 60 26.916 60 60 60 60-26.916 60-60zm-60 30c-16.542 0-30-13.458-30-30s13.458-30 30-30 30 13.458 30 30-13.458 30-30 30z"/><path d="m437 286h-71.812c-21.376 0-39.934-15.214-44.126-36.175l-19.744-98.721 3.237-15.104h-90.852l-22.766 113.825c-4.124 20.623-23.524 36.175-45.125 36.175h-70.812c-41.355 0-75 33.645-75 75v135h180v-121.038c31.267-4.353 58.896-22.111 75.918-47.644 17.635 26.896 45.337 43.418 75.082 47.625v121.057h181v-135c0-41.355-33.645-75-75-75zm-272 60h-15v120h-120v-105c0-24.813 20.187-45 45-45h70.812c36.206 0 67.557-25.356 74.544-60.292l17.941-89.708h29.148l-25.397 118.522c-7.634 35.623-40.037 61.478-77.048 61.478zm317 120h-121v-120h-15c-34.394 0-64.812-23.049-74.531-55.601l14.024-65.446 6.151 30.755c6.988 34.936 37.918 60.292 73.544 60.292h71.812c24.813 0 45 20.187 45 45z"/><path d="m241 16h30v60h-30z"/><path d="m286 61h60v30h-60z" transform="matrix(.707 -.707 .707 .707 38.813 245.704)"/><path d="m181 46h30v60h-30z" transform="matrix(.707 -.707 .707 .707 3.666 160.851)"/></g></svg>